<?xml version="1.0" encoding="utf-8"?>
<!-- Generator: Adobe Illustrator 18.0.0, SVG Export Plug-In . SVG Version: 6.00 Build 0)  -->
<!DOCTYPE svg PUBLIC "-//W3C//DTD SVG 1.1//EN" "http://www.w3.org/Graphics/SVG/1.1/DTD/svg11.dtd">
<svg version="1.1" id="Layer_1" xmlns="http://www.w3.org/2000/svg" xmlns:xlink="http://www.w3.org/1999/xlink" x="0px" y="0px"
	 viewBox="0 0 256 256" style="enable-background:new 0 0 256 256;" xml:space="preserve">
<style type="text/css">
	.st0{fill:#1C868E;}
	.st1{fill:#40C4DF;}
	.st2{fill:#FFFFFF;}
	.st3{fill:#D8D6D7;}
	.st4{fill:#F85252;}
	.st5{fill:#7BEFE4;}
	.st6{fill:#56C1B3;}
	.st7{fill:#491352;}
	.st8{fill:#41C4DF;}
	.st9{fill:#D73735;}
	.st10{fill:#EDAF85;}
	.st11{fill:#F7C09A;}
	.st12{fill:#1B868E;}
	.st13{fill:none;stroke:#491352;stroke-width:4;stroke-linecap:round;stroke-linejoin:round;stroke-miterlimit:10;}
	.st14{fill:none;stroke:#491352;stroke-width:4;stroke-miterlimit:10;}
</style>
<g id="XMLID_371_">
	<path id="XMLID_621_" class="st0" d="M252.671,127.954c0,32.82-13.65,62.46-35.59,83.54c-19.6,18.85-45.83,30.86-74.84,32.2
		c-1.8,0.09-3.62,0.13-5.44,0.13c-31.16,0-59.46-12.31-80.28-32.33c-21.94-21.08-35.59-50.72-35.59-83.54s13.65-62.46,35.59-83.54
		c20.82-20.02,49.12-32.33,80.28-32.33c1.94,0,3.87,0.05,5.79,0.14c0.01-0.01,0.01-0.01,0.02,0c28.86,1.43,54.95,13.42,74.47,32.19
		C239.021,65.494,252.671,95.134,252.671,127.954z"/>
	<path id="XMLID_619_" class="st1" d="M252.671,127.954c0,32.82-13.65,62.46-35.59,83.54c-19.6,18.85-45.83,30.86-74.84,32.2
		c-25.11-3.31-47.69-14.72-65.05-31.56c-21.94-21.22-35.59-51.08-35.59-84.15c0-33.06,13.65-62.92,35.59-84.15
		c17.44-16.91,40.15-28.35,65.4-31.61c0.01-0.01,0.01-0.01,0.02,0c28.86,1.43,54.95,13.42,74.47,32.19
		C239.021,65.494,252.671,95.134,252.671,127.954z"/>
	<circle id="XMLID_225_" class="st5" cx="216.251" cy="44.416" r="27.395"/>
	<path id="XMLID_1228_" class="st6" d="M216.251,57.907c-7.439,0-13.492-6.052-13.492-13.492s6.052-13.491,13.492-13.491
		s13.491,6.052,13.491,13.491S223.69,57.907,216.251,57.907z"/>
	<circle id="XMLID_1280_" class="st5" cx="136.86" cy="128.003" r="27.395"/>
	<path id="XMLID_1279_" class="st6" d="M136.86,141.494c-7.439,0-13.492-6.052-13.492-13.492c0-7.439,6.052-13.491,13.492-13.491
		s13.491,6.052,13.491,13.491C150.351,135.442,144.299,141.494,136.86,141.494z"/>
	<circle id="XMLID_1283_" class="st5" cx="30.471" cy="81.502" r="27.395"/>
	<path id="XMLID_1282_" class="st6" d="M30.471,94.993c-7.439,0-13.492-6.052-13.492-13.492c0-7.439,6.052-13.491,13.492-13.491
		s13.491,6.052,13.491,13.491C43.961,88.94,37.91,94.993,30.471,94.993z"/>
	<circle id="XMLID_1289_" class="st5" cx="188.293" cy="190.18" r="27.395"/>
	<path id="XMLID_1287_" class="st6" d="M188.293,203.672c-7.439,0-13.492-6.052-13.492-13.492s6.052-13.491,13.492-13.491
		s13.491,6.052,13.491,13.491S195.732,203.672,188.293,203.672z"/>
	<circle id="XMLID_1293_" class="st5" cx="58.301" cy="211.317" r="27.395"/>
	<path id="XMLID_1292_" class="st6" d="M58.301,224.809c-7.439,0-13.492-6.052-13.492-13.492s6.052-13.491,13.492-13.491
		s13.491,6.052,13.491,13.491S65.74,224.809,58.301,224.809z"/>
	<g id="XMLID_433_">
		<path id="XMLID_434_" class="st7" d="M236.781,65.434c5.47-5.34,8.87-12.79,8.87-21.02c0-26.872-33.517-39.736-51.43-19.43
			C143.204-3.564,83.155,12.583,53.641,44.414l0.02,0.02c-3.5,3.47-6.76,7.12-9.74,10.94c-19.357-10.039-42.85,4.063-42.85,26.13
			c0,12.68,8.07,23.51,19.35,27.62c-4.447,27.671,0.899,56.994,16.71,81.83c-17.957,18.591-4.579,49.76,21.17,49.76
			c8.54,0,16.24-3.66,21.61-9.49c17.24,9.53,36.71,14.6,56.89,14.6C229.043,245.824,286.075,143.729,236.781,65.434z
			 M250.641,125.954h-46.37c-2.16-21.38-10.2-41.13-19.38-57.43c3.17-1.41,6.29-2.97,9.33-4.68
			c10.147,11.524,27.325,13.234,39.49,4.21C244.421,85.284,250.301,105.124,250.641,125.954z M197.681,162.334
			c-14.675-5.024-31.091,2.448-36.82,17.29c-7.2-1.5-14.58-2.32-22.06-2.44v-19.86c14.66-0.95,26.42-12.71,27.38-27.37h34.42
			C201.358,140.914,200.381,151.8,197.681,162.334z M210.281,202.874c-7.779,13.469-25.897,16.993-38.2,6.84
			c-18.34-15.267-7.377-44.93,16.21-44.93C207.858,164.784,220.021,186.088,210.281,202.874z M195.221,30.194h0.01
			c13.817-20.633,46.42-10.802,46.42,14.22c0,13.953-11.363,25.4-25.4,25.4C196.056,69.814,183.736,47.089,195.221,30.194z
			 M142.131,14.204c0.02,0,0.04,0,0.07,0.01c18.4,0.837,36.099,6.287,49.55,13.98c-6.399,9.598-6.667,22.418,0,32.45
			c-2.89,1.6-5.84,3.07-8.86,4.4c-3.4-5.76-6.9-11.05-10.28-15.77c-12.01-16.78-24.36-29.24-30.51-35.06
			C142.111,14.214,142.121,14.214,142.131,14.204z M138.801,16.614c7.34,6.91,25.51,25.22,40.3,50.03
			c-12.68,5.07-26.3,7.84-40.3,8.08V16.614z M138.801,78.724c14.71-0.24,29.02-3.18,42.33-8.59c9.35,16.43,17,35.48,19.13,55.82
			h-34.09c-1-14.62-12.74-26.33-27.37-27.28V78.724z M94.505,66.646c14.797-24.819,32.964-43.131,40.296-50.03v58.108
			C120.802,74.484,107.184,71.715,94.505,66.646z M134.801,78.724v19.96c-14.58,1.01-26.26,12.69-27.26,27.27h-34.2
			c2.129-20.346,9.789-39.392,19.133-55.819C105.783,75.545,120.092,78.484,134.801,78.724z M76.311,31.464
			c1.572-2.358,28.152-16.024,55.09-17.25c0.03-0.01,0.05-0.01,0.07-0.01c0.01,0.01,0.02,0.01,0.03,0.01c0.002,0,0.003,0,0.005,0
			c-14.761,13.95-29.701,32.022-40.794,50.83l0,0c-11.38-5.04-21.94-11.97-31.27-20.63C62.445,41.41,70.276,35.146,76.311,31.464z
			 M56.561,47.184c9.59,8.95,20.45,16.12,32.149,21.34c-9.177,16.302-17.208,36.045-19.376,57.43H22.961
			c0.08-5.31,0.53-10.56,1.33-15.72c31.26,6.72,49.091-34.459,23.07-52.77C50.191,53.884,53.261,50.444,56.561,47.184z
			 M5.071,81.504c0-20.519,23.206-32.519,39.86-20.86c20.385,14.125,10.378,46.25-14.46,46.25
			C16.592,106.894,5.071,95.608,5.071,81.504z M22.961,129.954h46.041c-1.416,21.52,3.472,41.629,13.891,60.219
			c-0.526,0.276-1.199,0.616-2.772,1.471c-10.395-11.535-27.907-12.971-39.98-3.41C29.271,170.914,23.301,150.944,22.961,129.954z
			 M58.301,236.714c-21.87,0-33.514-26.089-18.91-42.32c15.306-17.347,44.31-6.303,44.31,16.92
			C83.701,225.344,72.273,236.714,58.301,236.714z M82.451,228.044c6.937-9.955,7.009-23.17,0.18-33.2
			c0.76-0.42,1.519-0.819,2.279-1.199c10.293,17.048,25.49,33.081,45.492,47.989C130.302,241.616,105.526,241.048,82.451,228.044z
			 M134.801,239.914c-20.457-14.928-35.917-30.984-46.283-48.053c14.348-6.728,30.056-10.397,46.283-10.677V239.914z
			 M134.801,177.184c-16.939,0.28-33.348,4.139-48.307,11.208C76.14,169.99,71.612,150.48,73.005,129.954h34.526
			c0.96,14.62,12.66,26.35,27.27,27.36V177.184z M111.551,125.954c1.134-14.164,13.834-24.529,27.25-23.27
			c13.873,1.05,24.466,13.243,23.37,27.27c-0.94,12.45-10.92,22.42-23.37,23.36C123.665,154.732,110.175,141.549,111.551,125.954z
			 M138.801,181.184c7.08,0.12,14.06,0.89,20.88,2.28c-2.536,10.739,1.173,22.053,9.76,29.24c-8.5,9.44-18.72,18.52-30.64,27.21
			V181.184z M143.531,241.624c-0.098,0.012-0.199,0.01-0.32,0.01c11.4-8.5,21.23-17.36,29.48-26.56
			c12.41,7.825,28.904,5.281,38.38-6.34c1.04,0.9,2.07,1.82,3.09,2.76C195.492,228.828,170.341,240.052,143.531,241.624z
			 M217.041,208.724c-1.19-1.12-2.41-2.21-3.64-3.26c8.939-14.657,3.416-33.877-11.99-41.58c2.929-11.141,3.95-22.48,3.2-33.93
			h46.03C250.151,159.844,238.261,187.684,217.041,208.724z"/>
		<path id="XMLID_643_" class="st7" d="M206.171,56.164c5.519,4.745,13.637,5.027,19.48,0.55c11.825-9.063,5.233-27.79-9.4-27.79
			C202.066,28.924,195.183,46.792,206.171,56.164z M216.251,32.924c11.008,0,15.732,14.187,6.83,20.72
			c-3.984,2.962-9.503,3.057-13.61,0.03C200.525,47.249,205.201,32.924,216.251,32.924z"/>
		<path id="XMLID_1424_" class="st7" d="M152.221,129.954c1.147-8.157-4.771-16.241-13.42-17.31
			c-7.999-1.125-16.142,4.608-17.29,13.31c-1.25,9.299,6.034,17.54,15.35,17.54C144.669,143.494,151.264,137.642,152.221,129.954z
			 M134.801,139.304c-5.466-0.994-9.43-5.779-9.43-11.3c0-16.263,25.717-14.701,22.81,1.95
			C147.075,136.403,140.825,140.473,134.801,139.304z"/>
		<path id="XMLID_1435_" class="st7" d="M45.961,81.504c0-8.525-6.933-15.49-15.49-15.49c-16.131,0-21.563,21.869-7,29.31
			C33.97,100.573,45.961,92.861,45.961,81.504z M24.671,91.414c-10.113-5.931-5.839-21.4,5.8-21.4c6.273,0,11.49,5.095,11.49,11.49
			C41.961,90.322,32.336,95.919,24.671,91.414z"/>
		<path id="XMLID_1438_" class="st7" d="M172.801,190.184c0,16.279,22.206,21.553,29.41,6.78c1.01-2.05,1.57-4.35,1.57-6.78
			C203.781,170.161,172.801,169.151,172.801,190.184z M199.781,190.184c0,1.63-0.34,3.18-0.96,4.59
			c-4.979,11.433-22.02,7.731-22.02-4.59C176.801,174.627,199.781,175.301,199.781,190.184z"/>
		<path id="XMLID_1491_" class="st7" d="M58.301,195.824c-8.574,0-15.49,6.983-15.49,15.49c0,14.686,18.818,21.223,27.84,9.34
			c1.876,1.353,1.499,1.089,0.01-0.01C78.416,210.356,70.921,195.824,58.301,195.824z M64.461,221.004
			c-7.523,4.817-17.65-0.557-17.65-9.69c0-6.262,5.101-11.49,11.49-11.49C69.703,199.824,74.159,214.901,64.461,221.004z"/>
	</g>
</g>
</svg>
