<?xml version="1.0" encoding="utf-8"?>
<!-- Generator: Adobe Illustrator 18.0.0, SVG Export Plug-In . SVG Version: 6.00 Build 0)  -->
<!DOCTYPE svg PUBLIC "-//W3C//DTD SVG 1.1//EN" "http://www.w3.org/Graphics/SVG/1.1/DTD/svg11.dtd">
<svg version="1.1" id="Layer_1" xmlns="http://www.w3.org/2000/svg" xmlns:xlink="http://www.w3.org/1999/xlink" x="0px" y="0px"
	 viewBox="0 0 256 256" style="enable-background:new 0 0 256 256;" xml:space="preserve">
<style type="text/css">
	.st0{fill:#1C868E;}
	.st1{fill:#40C4DF;}
	.st2{fill:#FFFFFF;}
	.st3{fill:#D8D6D7;}
	.st4{fill:#F85252;}
	.st5{fill:#7BEFE4;}
	.st6{fill:#56C1B3;}
	.st7{fill:#491352;}
	.st8{fill:#41C4DF;}
	.st9{fill:#D73735;}
	.st10{fill:#EDAF85;}
	.st11{fill:#F7C09A;}
	.st12{fill:#1B868E;}
	.st13{fill:none;stroke:#491352;stroke-width:4;stroke-linecap:round;stroke-linejoin:round;stroke-miterlimit:10;}
	.st14{fill:none;stroke:#491352;stroke-width:4;stroke-miterlimit:10;}
</style>
<g id="XMLID_314_">
	<path id="XMLID_573_" class="st0" d="M207.09,41.84v181.7c0,2.77-2.24,5-5,5H53.91c-2.76,0-5-2.23-5-5V41.84H207.09z"/>
	<path id="XMLID_571_" class="st1" d="M207.09,41.84V214.4H68.05c-2.76,0-5-2.24-5-5V41.84H207.09z"/>
	<path id="XMLID_1574_" class="st0" d="M225.5,10.09v46.99c0,2.76-2.24,5-5,5h-185c-2.76,0-5-2.24-5-5V10.09c0-2.76,2.24-5,5-5h185
		C223.26,5.09,225.5,7.33,225.5,10.09z"/>
	<path id="XMLID_1603_" class="st0" d="M225.5,80.09v46.99c0,2.76-2.24,5-5,5h-185c-2.76,0-5-2.24-5-5V80.09c0-2.76,2.24-5,5-5h185
		C223.26,75.09,225.5,77.33,225.5,80.09z"/>
	<path id="XMLID_325_" class="st0" d="M225.5,150.09v46.99c0,2.76-2.24,5-5,5h-185c-2.76,0-5-2.24-5-5v-46.99c0-2.76,2.24-5,5-5h185
		C223.26,145.09,225.5,147.33,225.5,150.09z"/>
	<path id="XMLID_1572_" class="st1" d="M225.5,10.09v37.85H49.65c-2.76,0-5-2.24-5-5V5.09H220.5C223.26,5.09,225.5,7.33,225.5,10.09
		z"/>
	<path id="XMLID_1601_" class="st1" d="M225.5,80.09v37.85H49.65c-2.76,0-5-2.24-5-5V75.09H220.5
		C223.26,75.09,225.5,77.33,225.5,80.09z"/>
	<path id="XMLID_324_" class="st1" d="M225.5,150.09v37.85H49.65c-2.76,0-5-2.24-5-5v-37.85H220.5
		C223.26,145.09,225.5,147.33,225.5,150.09z"/>
	<path id="XMLID_2174_" class="st0" d="M72.583,250.907H65.25c-2.761,0-5-2.239-5-5v-29.175h17.333v29.175
		C77.583,248.668,75.345,250.907,72.583,250.907z"/>
	<path id="XMLID_2173_" class="st0" d="M190.75,250.907h-7.333c-2.761,0-5-2.239-5-5v-29.175h17.333v29.175
		C195.75,248.668,193.511,250.907,190.75,250.907z"/>
	<path id="XMLID_2168_" class="st2" d="M94.056,45.587H54.723c-2.75,0-5-2.25-5-5v-14c0-2.75,2.25-5,5-5h39.333c2.75,0,5,2.25,5,5
		v14C99.056,43.337,96.806,45.587,94.056,45.587z"/>
	<circle id="XMLID_2167_" class="st4" cx="117.723" cy="33.587" r="6.5"/>
	<circle id="XMLID_2166_" class="st4" cx="141.223" cy="33.587" r="6.5"/>
	<path id="XMLID_2165_" class="st2" d="M94.056,115.587H54.723c-2.75,0-5-2.25-5-5v-14c0-2.75,2.25-5,5-5h39.333c2.75,0,5,2.25,5,5
		v14C99.056,113.337,96.806,115.587,94.056,115.587z"/>
	<circle id="XMLID_2164_" class="st4" cx="117.723" cy="103.587" r="6.5"/>
	<circle id="XMLID_2163_" class="st4" cx="141.223" cy="103.587" r="6.5"/>
	<path id="XMLID_2162_" class="st2" d="M94.056,185.587H54.723c-2.75,0-5-2.25-5-5v-14c0-2.75,2.25-5,5-5h39.333c2.75,0,5,2.25,5,5
		v14C99.056,183.337,96.806,185.587,94.056,185.587z"/>
	<circle id="XMLID_2161_" class="st4" cx="117.723" cy="173.587" r="6.5"/>
	<circle id="XMLID_2160_" class="st4" cx="141.223" cy="173.587" r="6.5"/>
	<g id="XMLID_315_">
		<path id="XMLID_317_" class="st7" d="M220.5,64.08c3.85,0,7-3.14,7-7V10.09c0-3.86-3.15-7-7-7h-185c-3.85,0-7,3.14-7,7v46.99
			c0,3.86,3.15,7,7,7h11.41v9.01H35.5c-3.85,0-7,3.14-7,7v46.99c0,3.86,3.15,7,7,7h11.41v9.01H35.5c-3.85,0-7,3.14-7,7v46.99
			c0,3.86,3.15,7,7,7h11.41v19.46c0,3.86,3.14,7,7,7h4.34v15.37c0,3.86,3.14,7,7,7h7.33c3.86,0,7-3.14,7-7v-15.37h96.84v15.37
			c0,3.86,3.14,7,7,7h7.33c3.86,0,7-3.14,7-7v-15.37h4.34c3.86,0,7-3.14,7-7v-19.46h11.41c3.85,0,7-3.14,7-7v-46.99
			c0-3.86-3.15-7-7-7h-11.41v-9.01h11.41c3.85,0,7-3.14,7-7V80.09c0-3.86-3.15-7-7-7h-11.41v-9.01H220.5z M75.58,245.91
			c0,1.65-1.34,3-3,3h-7.33c-1.65,0-3-1.35-3-3v-15.37h13.33V245.91z M193.75,245.91c0,1.65-1.35,3-3,3h-7.33c-1.66,0-3-1.35-3-3
			v-15.37h13.33V245.91z M205.09,223.54c0,1.66-1.35,3-3,3c-0.218,0-8.441,0-8.34,0c-80.318,0-53.93,0-139.84,0c-1.65,0-3-1.34-3-3
			v-19.46h154.18V223.54z M220.5,147.09c1.65,0,3,1.35,3,3v46.99c0,1.65-1.35,3-3,3c-7.477,0-167.65,0-185,0c-1.65,0-3-1.35-3-3
			v-46.99c0-1.65,1.35-3,3-3C75.253,147.09,181.227,147.09,220.5,147.09z M50.91,143.09v-9.01h154.18v9.01H50.91z M220.5,77.09
			c1.65,0,3,1.35,3,3v46.99c0,1.65-1.35,3-3,3c-7.477,0-167.65,0-185,0c-1.65,0-3-1.35-3-3V80.09c0-1.65,1.35-3,3-3
			C43.011,77.09,207.468,77.09,220.5,77.09z M50.91,73.09v-9.01h154.18v9.01H50.91z M35.5,60.08c-1.65,0-3-1.35-3-3V10.09
			c0-1.65,1.35-3,3-3h185c1.65,0,3,1.35,3,3v46.99c0,1.65-1.35,3-3,3C181.209,60.08,75.243,60.08,35.5,60.08z"/>
		<path id="XMLID_846_" class="st7" d="M94.056,19.587H54.723c-3.859,0-7,3.14-7,7v14c0,3.86,3.141,7,7,7h39.333c3.859,0,7-3.14,7-7
			v-14C101.056,22.727,97.915,19.587,94.056,19.587z M97.056,40.587c0,1.654-1.346,3-3,3H54.723c-1.654,0-3-1.346-3-3v-14
			c0-1.654,1.346-3,3-3h39.333c1.654,0,3,1.346,3,3V40.587z"/>
		<path id="XMLID_849_" class="st7" d="M117.723,25.087c-4.687,0-8.5,3.813-8.5,8.5s3.813,8.5,8.5,8.5s8.5-3.813,8.5-8.5
			S122.409,25.087,117.723,25.087z M117.723,38.087c-2.481,0-4.5-2.019-4.5-4.5s2.019-4.5,4.5-4.5s4.5,2.019,4.5,4.5
			S120.204,38.087,117.723,38.087z"/>
		<path id="XMLID_865_" class="st7" d="M141.223,25.087c-4.687,0-8.5,3.813-8.5,8.5s3.813,8.5,8.5,8.5s8.5-3.813,8.5-8.5
			S145.909,25.087,141.223,25.087z M141.223,38.087c-2.481,0-4.5-2.019-4.5-4.5s2.019-4.5,4.5-4.5s4.5,2.019,4.5,4.5
			S143.704,38.087,141.223,38.087z"/>
		<path id="XMLID_867_" class="st7" d="M163.777,21.587v24c0,1.104,0.896,2,2,2s2-0.896,2-2v-24
			C167.777,18.942,163.777,18.939,163.777,21.587z"/>
		<path id="XMLID_868_" class="st7" d="M177.277,21.587v24c0,1.104,0.896,2,2,2s2-0.896,2-2v-24
			C181.277,18.942,177.277,18.939,177.277,21.587z"/>
		<path id="XMLID_869_" class="st7" d="M192.777,19.587c-1.104,0-2,0.896-2,2v24c0,2.644,4,2.648,4,0v-24
			C194.777,20.482,193.882,19.587,192.777,19.587z"/>
		<path id="XMLID_870_" class="st7" d="M204.277,21.587v24c0,1.104,0.896,2,2,2s2-0.896,2-2v-24
			C208.277,18.942,204.277,18.939,204.277,21.587z"/>
		<path id="XMLID_875_" class="st7" d="M54.723,117.587h39.333c3.859,0,7-3.14,7-7v-14c0-3.86-3.141-7-7-7H54.723
			c-3.859,0-7,3.14-7,7v14C47.723,114.447,50.863,117.587,54.723,117.587z M51.723,96.587c0-1.654,1.346-3,3-3h39.333
			c1.654,0,3,1.346,3,3v14c0,1.654-1.346,3-3,3H54.723c-1.654,0-3-1.346-3-3V96.587z"/>
		<path id="XMLID_880_" class="st7" d="M117.723,112.087c4.687,0,8.5-3.813,8.5-8.5s-3.813-8.5-8.5-8.5s-8.5,3.813-8.5,8.5
			S113.036,112.087,117.723,112.087z M117.723,99.087c2.481,0,4.5,2.019,4.5,4.5s-2.019,4.5-4.5,4.5s-4.5-2.019-4.5-4.5
			S115.241,99.087,117.723,99.087z"/>
		<path id="XMLID_884_" class="st7" d="M141.223,112.087c4.687,0,8.5-3.813,8.5-8.5s-3.813-8.5-8.5-8.5s-8.5,3.813-8.5,8.5
			S136.536,112.087,141.223,112.087z M141.223,99.087c2.481,0,4.5,2.019,4.5,4.5s-2.019,4.5-4.5,4.5s-4.5-2.019-4.5-4.5
			S138.741,99.087,141.223,99.087z"/>
		<path id="XMLID_885_" class="st7" d="M165.777,117.587c1.104,0,2-0.896,2-2v-24c0-2.644-4-2.648-4,0v24
			C163.777,116.691,164.673,117.587,165.777,117.587z"/>
		<path id="XMLID_886_" class="st7" d="M181.277,115.587v-24c0-2.644-4-2.648-4,0v24
			C177.277,118.231,181.277,118.235,181.277,115.587z"/>
		<path id="XMLID_887_" class="st7" d="M194.777,115.587v-24c0-2.644-4-2.648-4,0v24
			C190.777,118.231,194.777,118.235,194.777,115.587z"/>
		<path id="XMLID_888_" class="st7" d="M208.277,115.587v-24c0-2.644-4-2.648-4,0v24
			C204.277,118.231,208.277,118.235,208.277,115.587z"/>
		<path id="XMLID_891_" class="st7" d="M54.723,187.587h39.333c3.859,0,7-3.14,7-7v-14c0-3.86-3.141-7-7-7H54.723
			c-3.859,0-7,3.14-7,7v14C47.723,184.447,50.863,187.587,54.723,187.587z M51.723,166.587c0-1.654,1.346-3,3-3h39.333
			c1.654,0,3,1.346,3,3v14c0,1.654-1.346,3-3,3H54.723c-1.654,0-3-1.346-3-3V166.587z"/>
		<path id="XMLID_894_" class="st7" d="M117.723,182.087c4.687,0,8.5-3.813,8.5-8.5s-3.813-8.5-8.5-8.5s-8.5,3.813-8.5,8.5
			S113.036,182.087,117.723,182.087z M117.723,169.087c2.481,0,4.5,2.019,4.5,4.5s-2.019,4.5-4.5,4.5s-4.5-2.019-4.5-4.5
			S115.241,169.087,117.723,169.087z"/>
		<path id="XMLID_897_" class="st7" d="M141.223,182.087c4.687,0,8.5-3.813,8.5-8.5s-3.813-8.5-8.5-8.5s-8.5,3.813-8.5,8.5
			S136.536,182.087,141.223,182.087z M141.223,169.087c2.481,0,4.5,2.019,4.5,4.5s-2.019,4.5-4.5,4.5s-4.5-2.019-4.5-4.5
			S138.741,169.087,141.223,169.087z"/>
		<path id="XMLID_898_" class="st7" d="M165.777,187.587c1.104,0,2-0.896,2-2v-24c0-1.104-0.896-2-2-2s-2,0.896-2,2v24
			C163.777,186.691,164.673,187.587,165.777,187.587z"/>
		<path id="XMLID_899_" class="st7" d="M179.277,187.587c1.104,0,2-0.896,2-2v-24c0-1.104-0.896-2-2-2s-2,0.896-2,2v24
			C177.277,186.691,178.173,187.587,179.277,187.587z"/>
		<path id="XMLID_900_" class="st7" d="M192.777,187.587c1.104,0,2-0.896,2-2v-24c0-1.104-0.896-2-2-2s-2,0.896-2,2v24
			C190.777,186.691,191.673,187.587,192.777,187.587z"/>
		<path id="XMLID_901_" class="st7" d="M206.277,187.587c1.104,0,2-0.896,2-2v-24c0-1.104-0.896-2-2-2s-2,0.896-2,2v24
			C204.277,186.691,205.173,187.587,206.277,187.587z"/>
	</g>
</g>
</svg>
