<?xml version="1.0" encoding="utf-8"?>
<!-- Generator: Adobe Illustrator 18.0.0, SVG Export Plug-In . SVG Version: 6.00 Build 0)  -->
<!DOCTYPE svg PUBLIC "-//W3C//DTD SVG 1.1//EN" "http://www.w3.org/Graphics/SVG/1.1/DTD/svg11.dtd">
<svg version="1.1" id="Layer_1" xmlns="http://www.w3.org/2000/svg" xmlns:xlink="http://www.w3.org/1999/xlink" x="0px" y="0px"
	 viewBox="0 0 256 256" style="enable-background:new 0 0 256 256;" xml:space="preserve">
<style type="text/css">
	.st0{fill:#1C868E;}
	.st1{fill:#40C4DF;}
	.st2{fill:#FFFFFF;}
	.st3{fill:#D8D6D7;}
	.st4{fill:#F85252;}
	.st5{fill:#7BEFE4;}
	.st6{fill:#56C1B3;}
	.st7{fill:#491352;}
	.st8{fill:#41C4DF;}
	.st9{fill:#D73735;}
	.st10{fill:#EDAF85;}
	.st11{fill:#F7C09A;}
	.st12{fill:#1B868E;}
	.st13{fill:none;stroke:#491352;stroke-width:4;stroke-linecap:round;stroke-linejoin:round;stroke-miterlimit:10;}
	.st14{fill:none;stroke:#491352;stroke-width:4;stroke-miterlimit:10;}
</style>
<g id="XMLID_326_">
	<path id="XMLID_1420_" class="st6" d="M179.45,15.66v224.68c0,5.31-4.31,9.61-9.61,9.61H12.36c-2.76,0-5-2.24-5-5V11.05
		c0-2.76,2.24-5,5-5h157.48C175.14,6.05,179.45,10.35,179.45,15.66z"/>
	<path id="XMLID_1416_" class="st5" d="M179.45,15.66V235.8H26.5c-2.76,0-5-2.23-5-5V6.05h148.34
		C175.14,6.05,179.45,10.35,179.45,15.66z"/>
	<path id="XMLID_1456_" class="st0" d="M248.64,169.23c0,18.67-6.34,35.86-16.99,49.54c-14.76,18.97-37.82,31.18-63.73,31.18
		c-4.13,0-8.18-0.31-12.14-0.91c-38.83-5.85-68.59-39.35-68.59-79.81c0-25.88,12.18-48.92,31.12-63.69
		c10.67-8.32,23.48-14.02,37.47-16.13c3.96-0.6,8.01-0.91,12.14-0.91C212.5,88.5,248.64,124.64,248.64,169.23z"/>
	<path id="XMLID_1454_" class="st8" d="M248.64,169.23c0,18.67-6.34,35.86-16.99,49.54c-13.69,10.67-30.9,17.03-49.59,17.03
		c-4.13,0-8.18-0.31-12.14-0.91c-38.83-5.85-68.59-39.35-68.59-79.81c0-18.67,6.34-35.86,16.98-49.54
		c10.67-8.32,23.48-14.02,37.47-16.13c3.96-0.6,8.01-0.91,12.14-0.91C212.5,88.5,248.64,124.64,248.64,169.23z"/>
	<path id="XMLID_1852_" class="st2" d="M220.265,206.338L220.265,206.338c-1.599-2.995-5.357-4.137-8.352-2.538l-20.361,10.871
		l-4.905-9.188l20.361-10.871c2.995-1.599,4.137-5.357,2.538-8.352c-1.599-2.995-5.357-4.137-8.352-2.538l-20.361,10.871
		l-18.485-34.624c10.083-8.587,13.205-23.312,6.713-35.473c-7.49-14.03-24.94-19.34-38.97-11.84
		c-14.03,7.49-19.34,24.94-11.84,38.97c6.492,12.16,20.464,17.763,33.209,14.159l32.111,60.144c1.599,2.995,5.357,4.137,8.352,2.538
		l25.806-13.778C220.722,213.091,221.864,209.333,220.265,206.338z M140.5,132.167c-3,1.6-6.74,0.47-8.35-2.54
		c-1.6-3.01-0.47-6.75,2.54-8.35c3.01-1.61,6.75-0.47,8.35,2.54C144.65,126.817,143.51,130.557,140.5,132.167z"/>
	<g id="XMLID_687_">
		<path id="XMLID_699_" class="st7" d="M24.147,30.417h138.509c2.645,0,2.648-4,0-4H24.147C21.503,26.417,21.5,30.417,24.147,30.417
			z"/>
		<path id="XMLID_774_" class="st7" d="M24.147,55.314h138.509c2.645,0,2.648-4,0-4H24.147C21.503,51.314,21.5,55.314,24.147,55.314
			z"/>
		<path id="XMLID_775_" class="st7" d="M24.147,80.212h138.509c2.645,0,2.648-4,0-4H24.147C21.503,76.212,21.5,80.212,24.147,80.212
			z"/>
		<path id="XMLID_790_" class="st7" d="M139.97,118.906c-6.989-2.107-12.982,5.329-9.58,11.67c2.127,3.985,7.066,5.49,11.06,3.36
			C147.846,130.517,146.931,121.037,139.97,118.906z M139.56,130.406c-3.315,1.764-7.027-1.398-5.95-4.89
			c1.062-3.55,5.928-4.026,7.67-0.75C142.36,126.796,141.59,129.326,139.56,130.406z"/>
		<path id="XMLID_804_" class="st7" d="M212,201.496l-19.62,10.48l-3.02-5.66l19.62-10.48c3.41-1.82,4.7-6.07,2.88-9.47
			c-0.76-1.084-1.487-4.317-5.24-5.47c-4.74-1.422-6.197,1.651-24.96,11l-16.8-31.47c17.144-16.207,10.303-44.952-12.25-51.83
			c-26.403-8.018-48.914,20.03-36.13,43.98c6.741,12.629,20.991,18.504,33.95,15.54l31.93,59.8c1.26,2.36,3.68,3.7,6.18,3.7
			c2.16,0,3.491-0.886,5.671-2.111c24.746-13.902,27.425-12.946,28.889-17.739c1.132-3.752-1.143-6.153-1.62-7.39
			C219.648,200.94,215.384,199.691,212,201.496z M148.47,164.436c-19.694,3.603-36.291-14.958-30.46-34.16
			c6.961-22.923,38.144-25.698,49.29-4.83C175.882,141.541,166.223,161.256,148.47,164.436z M217.54,212.548
			c-9.002,4.796-26.452,14.086-27.59,14.718c-1.417,0.763-3.27,0.253-4.06-1.24l-31.54-59.07c2.608-0.95,5.211-2.356,7.36-3.93
			l16.42,30.759c1.038,1.945,3.456,2.68,5.401,1.642l19.639-10.481c1.388-0.753,3.244-0.274,4.06,1.23l1.1,2.07
			c0.78,1.46,0.23,3.28-1.23,4.06c-12.119,6.47-7.495,4.001-19.634,10.482c-1.947,1.037-2.684,3.457-1.645,5.403l3.029,5.675
			c1.038,1.944,3.456,2.679,5.401,1.641l19.639-10.481c1.452-0.788,3.275-0.216,4.06,1.23l1.1,2.07
			C220.351,210.723,218.027,212.291,217.54,212.548z"/>
		<path id="XMLID_837_" class="st7" d="M181.45,87.616v-76.56c0-3.86-3.15-7-7-7H12.36c-3.86,0-7,3.14-7,7V244.92c0,3.86,3.14,7,7,7
			h153.06v-0.014c46.974,1.404,85.22-36.451,85.22-82.671C250.64,128.226,220.65,94.096,181.45,87.616z M12.36,247.92
			c-1.66,0-3-1.35-3-3V11.056c0-1.65,1.34-3,3-3h162.09c1.65,0,3,1.35,3,3v76.01c-19.161-2.265-39.342,2.254-56.4,14.04h-96.9
			c-2.643,0-2.652,4,0,4h91.58c-7.22,5.87-13.43,12.94-18.32,20.9H24.15c-2.645,0-2.647,4,0,4H95.1c-3.51,6.49-6.18,13.51-7.86,20.9
			H24.15c-2.653,0-2.642,4,0,4h62.28c-1.25,7.195-1.509,14.137-0.98,20.89h-61.3c-2.643,0-2.652,4,0,4h61.72
			c0.93,7.31,2.82,14.32,5.54,20.9H24.15c-2.643,0-2.652,4,0,4h69.04c3.66,7.7,8.48,14.74,14.24,20.9H24.15c-2.653,0-2.642,4,0,4
			h87.27c8.764,8.215,19.307,14.541,30.986,18.325H12.36z M117.45,229.596c-39.2-32.537-37.604-94.22,4.86-124.49
			c52.08-37.237,124.33,0.685,124.33,64.13C246.64,235.768,168.613,272.487,117.45,229.596z"/>
	</g>
</g>
</svg>
