<?xml version="1.0" encoding="utf-8"?>
<!-- Generator: Adobe Illustrator 18.0.0, SVG Export Plug-In . SVG Version: 6.00 Build 0)  -->
<!DOCTYPE svg PUBLIC "-//W3C//DTD SVG 1.1//EN" "http://www.w3.org/Graphics/SVG/1.1/DTD/svg11.dtd">
<svg version="1.1" id="Layer_1" xmlns="http://www.w3.org/2000/svg" xmlns:xlink="http://www.w3.org/1999/xlink" x="0px" y="0px"
	 viewBox="0 0 256 256" style="enable-background:new 0 0 256 256;" xml:space="preserve">
<style type="text/css">
	.st0{fill:#1C868E;}
	.st1{fill:#40C4DF;}
	.st2{fill:#FFFFFF;}
	.st3{fill:#D8D6D7;}
	.st4{fill:#F85252;}
	.st5{fill:#7BEFE4;}
	.st6{fill:#56C1B3;}
	.st7{fill:#491352;}
	.st8{fill:#41C4DF;}
	.st9{fill:#D73735;}
	.st10{fill:#EDAF85;}
	.st11{fill:#F7C09A;}
	.st12{fill:#1B868E;}
	.st13{fill:none;stroke:#491352;stroke-width:4;stroke-linecap:round;stroke-linejoin:round;stroke-miterlimit:10;}
	.st14{fill:none;stroke:#491352;stroke-width:4;stroke-miterlimit:10;}
</style>
<g id="XMLID_2032_">
	<g id="XMLID_2948_">
		<path id="XMLID_2947_" class="st3" d="M248.67,188.507v21.41c0,2.75-2.25,5-5,5H12.33c-2.75,0-5-2.25-5-5v-21.41
			c0-2.75,2.25-5,5-5h231.34C246.42,183.507,248.67,185.757,248.67,188.507z"/>
		<path id="XMLID_2946_" class="st2" d="M248.67,188.507v12.27H26.48c-2.75,0-5-2.25-5-5v-12.27h222.19
			C246.42,183.507,248.67,185.757,248.67,188.507z"/>
		<path id="XMLID_2945_" class="st3" d="M233.33,45.787v137.72H22.67V45.787c0-2.75,2.25-5,5-5h200.66
			C231.08,40.787,233.33,43.037,233.33,45.787z"/>
		<path id="XMLID_2944_" class="st2" d="M233.33,45.787v123.58H41.81c-2.761,0-5-2.239-5-5V40.787h191.52
			C231.08,40.787,233.33,43.037,233.33,45.787z"/>
		<path id="XMLID_2943_" class="st6" d="M218,61.337v94.62c0,6.6-5.4,12-12,12H50c-6.6,0-12-5.4-12-12v-94.62c0-2.75,2.25-5,5-5h170
			C215.75,56.337,218,58.587,218,61.337z"/>
		<path id="XMLID_2942_" class="st5" d="M218,61.337v92.48H57.14c-2.75,0-5-2.25-5-5v-92.48H213
			C215.75,56.337,218,58.587,218,61.337z"/>
		<path id="XMLID_2941_" class="st2" d="M154.389,199.246h-52.777c-1.505,0-2.929-0.678-3.879-1.845l-11.299-13.89h83.133
			l-11.299,13.89C157.318,198.569,155.893,199.246,154.389,199.246z"/>
	</g>
	<path id="XMLID_1916_" class="st2" d="M152.502,83.368v46.34c0,0.937-0.439,1.829-1.19,2.395l-37.587,28.663
		c-1.078,0.818-2.573,0.818-3.659,0l-37.587-28.663c-0.744-0.565-1.183-1.458-1.183-2.395v-46.34c0-0.796,0.305-1.562,0.863-2.12
		c2.93-2.9,6.18-5.392,9.653-7.474c21.538-12.933,51.859-10.3,69.819,7.474C152.197,81.807,152.502,82.573,152.502,83.368z"/>
	<path id="XMLID_1899_" class="st1" d="M131.983,139.405H91.811c-2.75,0-5-2.25-5-5V99.577c0-2.75,2.25-5,5-5h40.172
		c2.75,0,5,2.25,5,5v34.828C136.983,137.155,134.733,139.405,131.983,139.405z"/>
	<path id="XMLID_1890_" class="st0" d="M120.648,112.612c0-5.164-4.472-9.283-9.755-8.695c-3.887,0.433-7.084,3.504-7.65,7.374
		c-0.516,3.528,1.076,6.729,3.703,8.534c0.904,0.621,1.481,1.613,1.481,2.709v7.064c0,1.174,0.604,2.295,1.637,2.851
		c2.627,1.415,5.303-0.489,5.303-2.987v-6.946c0-1.087,0.573-2.07,1.47-2.684C119.138,118.256,120.648,115.611,120.648,112.612z"/>
	<path id="XMLID_1879_" class="st3" d="M120.682,70.941h-17.566c-2.045,0-3.719,1.673-3.719,3.719v19.916h4.842v-15.06
		c0-2.053,1.666-3.719,3.719-3.719h7.883c2.053,0,3.719,1.666,3.719,3.719v15.06h4.842V74.659
		C124.401,72.614,122.727,70.941,120.682,70.941z"/>
	<circle id="XMLID_2669_" class="st1" cx="164.434" cy="131.521" r="20.333"/>
	<g id="XMLID_1995_">
		<path id="XMLID_2029_" class="st7" d="M213,54.484H43c-3.86,0-7,3.14-7,7v101.625c0,3.86,3.14,7,7,7h170c3.86,0,7-3.14,7-7V61.484
			C220,57.625,216.86,54.484,213,54.484z M216,163.109c0,1.654-1.346,3-3,3H43c-1.654,0-3-1.346-3-3V61.484c0-1.654,1.346-3,3-3h170
			c1.654,0,3,1.346,3,3V163.109z"/>
		<path id="XMLID_2024_" class="st7" d="M243.667,181.661h-8.333V45.932c0-3.86-3.14-7-7-7H27.667c-3.86,0-7,3.14-7,7v135.729
			h-8.333c-3.86,0-7,3.14-7,7v21.407c0,3.86,3.14,7,7,7h231.333c3.86,0,7-3.14,7-7v-21.407
			C250.667,184.801,247.526,181.661,243.667,181.661z M24.667,45.932c0-1.654,1.346-3,3-3h200.667c1.654,0,3,1.346,3,3v135.729
			c-23.527,0-180.643,0-206.667,0V45.932z M165.362,185.661l-8.646,10.628c-0.572,0.704-1.42,1.107-2.327,1.107h-52.777
			c-0.907,0-1.755-0.403-2.327-1.107l-8.646-10.628H165.362z M246.667,210.068c0,1.654-1.346,3-3,3H12.333c-1.654,0-3-1.346-3-3
			v-21.407c0-1.654,1.346-3,3-3h8.333h64.815l10.699,13.152c1.335,1.641,3.314,2.583,5.43,2.583h52.777
			c2.116,0,4.095-0.941,5.43-2.583l10.7-13.152h64.816h8.333c1.654,0,3,1.346,3,3V210.068z"/>
		<path id="XMLID_2018_" class="st7" d="M131.91,92.6h-5.58V75.97c0-3.86-3.14-7-7-7h-15c-3.86,0-7,3.14-7,7V92.6h-5.58
			c-3.86,0-7,3.14-7,7v34.82c0,3.86,3.14,7,7,7h40.16c3.86,0,7-3.14,7-7V99.6C138.91,95.74,135.77,92.6,131.91,92.6z M101.33,75.97
			c0-1.66,1.34-3,3-3h15c1.66,0,3,1.34,3,3V92.6h-0.85V76.34c0-1.39-1.13-2.52-2.52-2.52H104.7c-1.39,0-2.52,1.13-2.52,2.52V92.6
			h-0.85V75.97z M117.48,77.82V92.6h-11.3V77.82H117.48z M134.91,134.42c0,1.65-1.34,3-3,3H91.75c-1.66,0-3-1.35-3-3V99.6
			c0-1.66,1.34-3,3-3c21.453,0,20.795,0,40.16,0c1.66,0,3,1.34,3,3V134.42z"/>
		<path id="XMLID_1999_" class="st7" d="M101.198,111.016c-0.602,4.116,1.141,8.128,4.549,10.471
			c1.063,0.731,0.418,1.247,0.613,8.123c0,6.991,10.939,7.136,10.939-0.135c0.192-6.763-0.448-7.259,0.599-7.978
			c5.782-3.959,6.269-12.253,1.098-16.881C112.551,98.846,102.406,102.762,101.198,111.016z M115.638,118.196
			c-3.598,2.464-1.919,6.349-2.339,11.278c0,1.907-2.939,1.929-2.939,0.135c-0.425-5.033,1.271-8.933-2.348-11.419
			c-2.142-1.472-3.236-3.999-2.856-6.595c0.76-5.196,7.143-7.607,11.172-4C119.586,110.51,119.261,115.716,115.638,118.196z"/>
		<path id="XMLID_2003_" class="st7" d="M154.43,111.57V83.39c0-1.33-0.54-2.62-1.46-3.54c-21.631-21.401-60.416-21.633-82.28,0
			c-0.92,0.92-1.46,2.21-1.46,3.54v46.33c0,1.55,0.74,3.05,1.98,3.99l37.58,28.65c0.89,0.68,1.97,1.02,3.04,1.02
			s2.15-0.34,3.04-1.02l29.01-22.12c3.4,8,11.33,13.61,20.55,13.61c12.32,0,22.34-10.01,22.34-22.33
			C186.77,114.858,169.131,104.146,154.43,111.57z M142.59,136.2l-30.15,22.98c-0.36,0.27-0.86,0.28-1.23,0l-37.58-28.65
			c-0.25-0.19-0.4-0.5-0.4-0.81V83.39c0-0.27,0.1-0.52,0.28-0.7c15.125-14.959,39.444-18.574,59.03-11.17
			c6.55,2.49,12.6,6.21,17.61,11.17c0.18,0.18,0.28,0.43,0.28,0.7v30.76C143.895,119.398,140.825,127.871,142.59,136.2z
			 M164.43,149.85c-15.415,0-24.149-18.149-14-30.14c11.1-13.125,32.34-5.068,32.34,11.81
			C182.77,141.63,174.54,149.85,164.43,149.85z"/>
		<path id="XMLID_2005_" class="st7" d="M171.456,121.95l-10.762,14.421l-3.195-5.045c-1.416-2.237-4.794-0.093-3.379,2.141
			c4.654,6.854,4.566,8.43,6.439,8.43c1.835,0,1.233-0.786,14.103-17.554C176.242,122.225,173.039,119.827,171.456,121.95z"/>
	</g>
</g>
</svg>
